%TF.GenerationSoftware,KiCad,Pcbnew,7.0.7-7.0.7~ubuntu22.04.1*%
%TF.CreationDate,2023-09-23T20:45:54+02:00*%
%TF.ProjectId,Multiple-3x2,4d756c74-6970-46c6-952d-3378322e6b69,rev?*%
%TF.SameCoordinates,Original*%
%TF.FileFunction,Drillmap*%
%TF.FilePolarity,Positive*%
%FSLAX45Y45*%
G04 Gerber Fmt 4.5, Leading zero omitted, Abs format (unit mm)*
G04 Created by KiCad (PCBNEW 7.0.7-7.0.7~ubuntu22.04.1) date 2023-09-23 20:45:54*
%MOMM*%
%LPD*%
G01*
G04 APERTURE LIST*
%ADD10C,0.050000*%
%ADD11C,0.200000*%
G04 APERTURE END LIST*
D10*
X5275000Y-3700000D02*
X6725000Y-3700000D01*
X6725000Y-3700000D02*
X6725000Y-13150000D01*
X5275000Y-13150000D02*
X6725000Y-13150000D01*
X5275000Y-3700000D02*
X5275000Y-13150000D01*
D11*
X5533277Y-13463984D02*
X5533277Y-13263984D01*
X5533277Y-13263984D02*
X5580896Y-13263984D01*
X5580896Y-13263984D02*
X5609467Y-13273508D01*
X5609467Y-13273508D02*
X5628515Y-13292555D01*
X5628515Y-13292555D02*
X5638039Y-13311603D01*
X5638039Y-13311603D02*
X5647562Y-13349698D01*
X5647562Y-13349698D02*
X5647562Y-13378269D01*
X5647562Y-13378269D02*
X5638039Y-13416365D01*
X5638039Y-13416365D02*
X5628515Y-13435412D01*
X5628515Y-13435412D02*
X5609467Y-13454460D01*
X5609467Y-13454460D02*
X5580896Y-13463984D01*
X5580896Y-13463984D02*
X5533277Y-13463984D01*
X5733277Y-13463984D02*
X5733277Y-13330650D01*
X5733277Y-13368746D02*
X5742801Y-13349698D01*
X5742801Y-13349698D02*
X5752324Y-13340174D01*
X5752324Y-13340174D02*
X5771372Y-13330650D01*
X5771372Y-13330650D02*
X5790420Y-13330650D01*
X5857086Y-13463984D02*
X5857086Y-13330650D01*
X5857086Y-13263984D02*
X5847562Y-13273508D01*
X5847562Y-13273508D02*
X5857086Y-13283031D01*
X5857086Y-13283031D02*
X5866610Y-13273508D01*
X5866610Y-13273508D02*
X5857086Y-13263984D01*
X5857086Y-13263984D02*
X5857086Y-13283031D01*
X5980896Y-13463984D02*
X5961848Y-13454460D01*
X5961848Y-13454460D02*
X5952324Y-13435412D01*
X5952324Y-13435412D02*
X5952324Y-13263984D01*
X6085658Y-13463984D02*
X6066610Y-13454460D01*
X6066610Y-13454460D02*
X6057086Y-13435412D01*
X6057086Y-13435412D02*
X6057086Y-13263984D01*
X6314229Y-13463984D02*
X6314229Y-13263984D01*
X6314229Y-13263984D02*
X6380896Y-13406841D01*
X6380896Y-13406841D02*
X6447562Y-13263984D01*
X6447562Y-13263984D02*
X6447562Y-13463984D01*
X6628515Y-13463984D02*
X6628515Y-13359222D01*
X6628515Y-13359222D02*
X6618991Y-13340174D01*
X6618991Y-13340174D02*
X6599943Y-13330650D01*
X6599943Y-13330650D02*
X6561848Y-13330650D01*
X6561848Y-13330650D02*
X6542801Y-13340174D01*
X6628515Y-13454460D02*
X6609467Y-13463984D01*
X6609467Y-13463984D02*
X6561848Y-13463984D01*
X6561848Y-13463984D02*
X6542801Y-13454460D01*
X6542801Y-13454460D02*
X6533277Y-13435412D01*
X6533277Y-13435412D02*
X6533277Y-13416365D01*
X6533277Y-13416365D02*
X6542801Y-13397317D01*
X6542801Y-13397317D02*
X6561848Y-13387793D01*
X6561848Y-13387793D02*
X6609467Y-13387793D01*
X6609467Y-13387793D02*
X6628515Y-13378269D01*
X6723753Y-13330650D02*
X6723753Y-13530650D01*
X6723753Y-13340174D02*
X6742801Y-13330650D01*
X6742801Y-13330650D02*
X6780896Y-13330650D01*
X6780896Y-13330650D02*
X6799943Y-13340174D01*
X6799943Y-13340174D02*
X6809467Y-13349698D01*
X6809467Y-13349698D02*
X6818991Y-13368746D01*
X6818991Y-13368746D02*
X6818991Y-13425888D01*
X6818991Y-13425888D02*
X6809467Y-13444936D01*
X6809467Y-13444936D02*
X6799943Y-13454460D01*
X6799943Y-13454460D02*
X6780896Y-13463984D01*
X6780896Y-13463984D02*
X6742801Y-13463984D01*
X6742801Y-13463984D02*
X6723753Y-13454460D01*
X6904705Y-13444936D02*
X6914229Y-13454460D01*
X6914229Y-13454460D02*
X6904705Y-13463984D01*
X6904705Y-13463984D02*
X6895182Y-13454460D01*
X6895182Y-13454460D02*
X6904705Y-13444936D01*
X6904705Y-13444936D02*
X6904705Y-13463984D01*
X6904705Y-13340174D02*
X6914229Y-13349698D01*
X6914229Y-13349698D02*
X6904705Y-13359222D01*
X6904705Y-13359222D02*
X6895182Y-13349698D01*
X6895182Y-13349698D02*
X6904705Y-13340174D01*
X6904705Y-13340174D02*
X6904705Y-13359222D01*
M02*
