%TF.GenerationSoftware,KiCad,Pcbnew,7.0.7-7.0.7~ubuntu22.04.1*%
%TF.CreationDate,2023-09-23T20:45:03+02:00*%
%TF.ProjectId,Multiple-3x2,4d756c74-6970-46c6-952d-3378322e6b69,rev?*%
%TF.SameCoordinates,Original*%
%TF.FileFunction,Drillmap*%
%TF.FilePolarity,Positive*%
%FSLAX45Y45*%
G04 Gerber Fmt 4.5, Leading zero omitted, Abs format (unit mm)*
G04 Created by KiCad (PCBNEW 7.0.7-7.0.7~ubuntu22.04.1) date 2023-09-23 20:45:03*
%MOMM*%
%LPD*%
G01*
G04 APERTURE LIST*
%ADD10C,0.050000*%
%ADD11C,0.200000*%
%ADD12C,0.300000*%
%ADD13C,0.620000*%
G04 APERTURE END LIST*
D10*
X8950000Y-15550000D02*
X7450000Y-15550000D01*
X7450000Y-2700000D02*
X7450000Y-15550000D01*
X8950000Y-2700000D02*
X8950000Y-15550000D01*
X7450000Y-2700000D02*
X8950000Y-2700000D01*
D11*
D12*
X8050000Y-2900000D02*
X8350000Y-3200000D01*
X8350000Y-2900000D02*
X8050000Y-3200000D01*
D11*
X8075000Y-3200000D02*
X8325000Y-3200000D01*
X8325000Y-3200000D02*
G75*
G03*
X8325000Y-2900000I0J150000D01*
G01*
X8325000Y-2900000D02*
X8075000Y-2900000D01*
X8075000Y-2900000D02*
G75*
G03*
X8075000Y-3200000I0J-150000D01*
G01*
D12*
X8050000Y-15100000D02*
X8350000Y-15400000D01*
X8350000Y-15100000D02*
X8050000Y-15400000D01*
D11*
X8075000Y-15400000D02*
X8325000Y-15400000D01*
X8325000Y-15400000D02*
G75*
G03*
X8325000Y-15100000I0J150000D01*
G01*
X8325000Y-15100000D02*
X8075000Y-15100000D01*
X8075000Y-15100000D02*
G75*
G03*
X8075000Y-15400000I0J-150000D01*
G01*
D13*
X8510000Y-4200000D02*
G75*
G03*
X8510000Y-4200000I-310000J0D01*
G01*
X8510000Y-5200000D02*
G75*
G03*
X8510000Y-5200000I-310000J0D01*
G01*
X8510000Y-6200000D02*
G75*
G03*
X8510000Y-6200000I-310000J0D01*
G01*
X8510000Y-7400000D02*
G75*
G03*
X8510000Y-7400000I-310000J0D01*
G01*
X8510000Y-8400000D02*
G75*
G03*
X8510000Y-8400000I-310000J0D01*
G01*
X8510000Y-9400000D02*
G75*
G03*
X8510000Y-9400000I-310000J0D01*
G01*
X8510000Y-10600000D02*
G75*
G03*
X8510000Y-10600000I-310000J0D01*
G01*
X8510000Y-11600000D02*
G75*
G03*
X8510000Y-11600000I-310000J0D01*
G01*
X8510000Y-12600000D02*
G75*
G03*
X8510000Y-12600000I-310000J0D01*
G01*
D11*
X7708277Y-15863984D02*
X7708277Y-15663984D01*
X7708277Y-15663984D02*
X7755896Y-15663984D01*
X7755896Y-15663984D02*
X7784467Y-15673508D01*
X7784467Y-15673508D02*
X7803515Y-15692555D01*
X7803515Y-15692555D02*
X7813039Y-15711603D01*
X7813039Y-15711603D02*
X7822562Y-15749698D01*
X7822562Y-15749698D02*
X7822562Y-15778269D01*
X7822562Y-15778269D02*
X7813039Y-15816365D01*
X7813039Y-15816365D02*
X7803515Y-15835412D01*
X7803515Y-15835412D02*
X7784467Y-15854460D01*
X7784467Y-15854460D02*
X7755896Y-15863984D01*
X7755896Y-15863984D02*
X7708277Y-15863984D01*
X7908277Y-15863984D02*
X7908277Y-15730650D01*
X7908277Y-15768746D02*
X7917801Y-15749698D01*
X7917801Y-15749698D02*
X7927324Y-15740174D01*
X7927324Y-15740174D02*
X7946372Y-15730650D01*
X7946372Y-15730650D02*
X7965420Y-15730650D01*
X8032086Y-15863984D02*
X8032086Y-15730650D01*
X8032086Y-15663984D02*
X8022562Y-15673508D01*
X8022562Y-15673508D02*
X8032086Y-15683031D01*
X8032086Y-15683031D02*
X8041610Y-15673508D01*
X8041610Y-15673508D02*
X8032086Y-15663984D01*
X8032086Y-15663984D02*
X8032086Y-15683031D01*
X8155896Y-15863984D02*
X8136848Y-15854460D01*
X8136848Y-15854460D02*
X8127324Y-15835412D01*
X8127324Y-15835412D02*
X8127324Y-15663984D01*
X8260658Y-15863984D02*
X8241610Y-15854460D01*
X8241610Y-15854460D02*
X8232086Y-15835412D01*
X8232086Y-15835412D02*
X8232086Y-15663984D01*
X8489229Y-15863984D02*
X8489229Y-15663984D01*
X8489229Y-15663984D02*
X8555896Y-15806841D01*
X8555896Y-15806841D02*
X8622563Y-15663984D01*
X8622563Y-15663984D02*
X8622563Y-15863984D01*
X8803515Y-15863984D02*
X8803515Y-15759222D01*
X8803515Y-15759222D02*
X8793991Y-15740174D01*
X8793991Y-15740174D02*
X8774944Y-15730650D01*
X8774944Y-15730650D02*
X8736848Y-15730650D01*
X8736848Y-15730650D02*
X8717801Y-15740174D01*
X8803515Y-15854460D02*
X8784467Y-15863984D01*
X8784467Y-15863984D02*
X8736848Y-15863984D01*
X8736848Y-15863984D02*
X8717801Y-15854460D01*
X8717801Y-15854460D02*
X8708277Y-15835412D01*
X8708277Y-15835412D02*
X8708277Y-15816365D01*
X8708277Y-15816365D02*
X8717801Y-15797317D01*
X8717801Y-15797317D02*
X8736848Y-15787793D01*
X8736848Y-15787793D02*
X8784467Y-15787793D01*
X8784467Y-15787793D02*
X8803515Y-15778269D01*
X8898753Y-15730650D02*
X8898753Y-15930650D01*
X8898753Y-15740174D02*
X8917801Y-15730650D01*
X8917801Y-15730650D02*
X8955896Y-15730650D01*
X8955896Y-15730650D02*
X8974944Y-15740174D01*
X8974944Y-15740174D02*
X8984467Y-15749698D01*
X8984467Y-15749698D02*
X8993991Y-15768746D01*
X8993991Y-15768746D02*
X8993991Y-15825888D01*
X8993991Y-15825888D02*
X8984467Y-15844936D01*
X8984467Y-15844936D02*
X8974944Y-15854460D01*
X8974944Y-15854460D02*
X8955896Y-15863984D01*
X8955896Y-15863984D02*
X8917801Y-15863984D01*
X8917801Y-15863984D02*
X8898753Y-15854460D01*
X9079705Y-15844936D02*
X9089229Y-15854460D01*
X9089229Y-15854460D02*
X9079705Y-15863984D01*
X9079705Y-15863984D02*
X9070182Y-15854460D01*
X9070182Y-15854460D02*
X9079705Y-15844936D01*
X9079705Y-15844936D02*
X9079705Y-15863984D01*
X9079705Y-15740174D02*
X9089229Y-15749698D01*
X9089229Y-15749698D02*
X9079705Y-15759222D01*
X9079705Y-15759222D02*
X9070182Y-15749698D01*
X9070182Y-15749698D02*
X9079705Y-15740174D01*
X9079705Y-15740174D02*
X9079705Y-15759222D01*
X7247500Y-16092500D02*
X7447500Y-16292500D01*
X7447500Y-16092500D02*
X7247500Y-16292500D01*
X7689229Y-16083984D02*
X7813039Y-16083984D01*
X7813039Y-16083984D02*
X7746372Y-16160174D01*
X7746372Y-16160174D02*
X7774943Y-16160174D01*
X7774943Y-16160174D02*
X7793991Y-16169698D01*
X7793991Y-16169698D02*
X7803515Y-16179222D01*
X7803515Y-16179222D02*
X7813039Y-16198269D01*
X7813039Y-16198269D02*
X7813039Y-16245888D01*
X7813039Y-16245888D02*
X7803515Y-16264936D01*
X7803515Y-16264936D02*
X7793991Y-16274460D01*
X7793991Y-16274460D02*
X7774943Y-16283984D01*
X7774943Y-16283984D02*
X7717801Y-16283984D01*
X7717801Y-16283984D02*
X7698753Y-16274460D01*
X7698753Y-16274460D02*
X7689229Y-16264936D01*
X7898753Y-16264936D02*
X7908277Y-16274460D01*
X7908277Y-16274460D02*
X7898753Y-16283984D01*
X7898753Y-16283984D02*
X7889229Y-16274460D01*
X7889229Y-16274460D02*
X7898753Y-16264936D01*
X7898753Y-16264936D02*
X7898753Y-16283984D01*
X8032086Y-16083984D02*
X8051134Y-16083984D01*
X8051134Y-16083984D02*
X8070182Y-16093508D01*
X8070182Y-16093508D02*
X8079705Y-16103031D01*
X8079705Y-16103031D02*
X8089229Y-16122079D01*
X8089229Y-16122079D02*
X8098753Y-16160174D01*
X8098753Y-16160174D02*
X8098753Y-16207793D01*
X8098753Y-16207793D02*
X8089229Y-16245888D01*
X8089229Y-16245888D02*
X8079705Y-16264936D01*
X8079705Y-16264936D02*
X8070182Y-16274460D01*
X8070182Y-16274460D02*
X8051134Y-16283984D01*
X8051134Y-16283984D02*
X8032086Y-16283984D01*
X8032086Y-16283984D02*
X8013039Y-16274460D01*
X8013039Y-16274460D02*
X8003515Y-16264936D01*
X8003515Y-16264936D02*
X7993991Y-16245888D01*
X7993991Y-16245888D02*
X7984467Y-16207793D01*
X7984467Y-16207793D02*
X7984467Y-16160174D01*
X7984467Y-16160174D02*
X7993991Y-16122079D01*
X7993991Y-16122079D02*
X8003515Y-16103031D01*
X8003515Y-16103031D02*
X8013039Y-16093508D01*
X8013039Y-16093508D02*
X8032086Y-16083984D01*
X8222562Y-16083984D02*
X8241610Y-16083984D01*
X8241610Y-16083984D02*
X8260658Y-16093508D01*
X8260658Y-16093508D02*
X8270182Y-16103031D01*
X8270182Y-16103031D02*
X8279705Y-16122079D01*
X8279705Y-16122079D02*
X8289229Y-16160174D01*
X8289229Y-16160174D02*
X8289229Y-16207793D01*
X8289229Y-16207793D02*
X8279705Y-16245888D01*
X8279705Y-16245888D02*
X8270182Y-16264936D01*
X8270182Y-16264936D02*
X8260658Y-16274460D01*
X8260658Y-16274460D02*
X8241610Y-16283984D01*
X8241610Y-16283984D02*
X8222562Y-16283984D01*
X8222562Y-16283984D02*
X8203515Y-16274460D01*
X8203515Y-16274460D02*
X8193991Y-16264936D01*
X8193991Y-16264936D02*
X8184467Y-16245888D01*
X8184467Y-16245888D02*
X8174943Y-16207793D01*
X8174943Y-16207793D02*
X8174943Y-16160174D01*
X8174943Y-16160174D02*
X8184467Y-16122079D01*
X8184467Y-16122079D02*
X8193991Y-16103031D01*
X8193991Y-16103031D02*
X8203515Y-16093508D01*
X8203515Y-16093508D02*
X8222562Y-16083984D01*
X8413039Y-16083984D02*
X8432086Y-16083984D01*
X8432086Y-16083984D02*
X8451134Y-16093508D01*
X8451134Y-16093508D02*
X8460658Y-16103031D01*
X8460658Y-16103031D02*
X8470182Y-16122079D01*
X8470182Y-16122079D02*
X8479705Y-16160174D01*
X8479705Y-16160174D02*
X8479705Y-16207793D01*
X8479705Y-16207793D02*
X8470182Y-16245888D01*
X8470182Y-16245888D02*
X8460658Y-16264936D01*
X8460658Y-16264936D02*
X8451134Y-16274460D01*
X8451134Y-16274460D02*
X8432086Y-16283984D01*
X8432086Y-16283984D02*
X8413039Y-16283984D01*
X8413039Y-16283984D02*
X8393991Y-16274460D01*
X8393991Y-16274460D02*
X8384467Y-16264936D01*
X8384467Y-16264936D02*
X8374943Y-16245888D01*
X8374943Y-16245888D02*
X8365420Y-16207793D01*
X8365420Y-16207793D02*
X8365420Y-16160174D01*
X8365420Y-16160174D02*
X8374943Y-16122079D01*
X8374943Y-16122079D02*
X8384467Y-16103031D01*
X8384467Y-16103031D02*
X8393991Y-16093508D01*
X8393991Y-16093508D02*
X8413039Y-16083984D01*
X8565420Y-16283984D02*
X8565420Y-16150650D01*
X8565420Y-16169698D02*
X8574944Y-16160174D01*
X8574944Y-16160174D02*
X8593991Y-16150650D01*
X8593991Y-16150650D02*
X8622563Y-16150650D01*
X8622563Y-16150650D02*
X8641610Y-16160174D01*
X8641610Y-16160174D02*
X8651134Y-16179222D01*
X8651134Y-16179222D02*
X8651134Y-16283984D01*
X8651134Y-16179222D02*
X8660658Y-16160174D01*
X8660658Y-16160174D02*
X8679705Y-16150650D01*
X8679705Y-16150650D02*
X8708277Y-16150650D01*
X8708277Y-16150650D02*
X8727325Y-16160174D01*
X8727325Y-16160174D02*
X8736848Y-16179222D01*
X8736848Y-16179222D02*
X8736848Y-16283984D01*
X8832086Y-16283984D02*
X8832086Y-16150650D01*
X8832086Y-16169698D02*
X8841610Y-16160174D01*
X8841610Y-16160174D02*
X8860658Y-16150650D01*
X8860658Y-16150650D02*
X8889229Y-16150650D01*
X8889229Y-16150650D02*
X8908277Y-16160174D01*
X8908277Y-16160174D02*
X8917801Y-16179222D01*
X8917801Y-16179222D02*
X8917801Y-16283984D01*
X8917801Y-16179222D02*
X8927325Y-16160174D01*
X8927325Y-16160174D02*
X8946372Y-16150650D01*
X8946372Y-16150650D02*
X8974944Y-16150650D01*
X8974944Y-16150650D02*
X8993991Y-16160174D01*
X8993991Y-16160174D02*
X9003515Y-16179222D01*
X9003515Y-16179222D02*
X9003515Y-16283984D01*
X9393991Y-16074460D02*
X9222563Y-16331603D01*
X9651134Y-16083984D02*
X9670182Y-16083984D01*
X9670182Y-16083984D02*
X9689229Y-16093508D01*
X9689229Y-16093508D02*
X9698753Y-16103031D01*
X9698753Y-16103031D02*
X9708277Y-16122079D01*
X9708277Y-16122079D02*
X9717801Y-16160174D01*
X9717801Y-16160174D02*
X9717801Y-16207793D01*
X9717801Y-16207793D02*
X9708277Y-16245888D01*
X9708277Y-16245888D02*
X9698753Y-16264936D01*
X9698753Y-16264936D02*
X9689229Y-16274460D01*
X9689229Y-16274460D02*
X9670182Y-16283984D01*
X9670182Y-16283984D02*
X9651134Y-16283984D01*
X9651134Y-16283984D02*
X9632087Y-16274460D01*
X9632087Y-16274460D02*
X9622563Y-16264936D01*
X9622563Y-16264936D02*
X9613039Y-16245888D01*
X9613039Y-16245888D02*
X9603515Y-16207793D01*
X9603515Y-16207793D02*
X9603515Y-16160174D01*
X9603515Y-16160174D02*
X9613039Y-16122079D01*
X9613039Y-16122079D02*
X9622563Y-16103031D01*
X9622563Y-16103031D02*
X9632087Y-16093508D01*
X9632087Y-16093508D02*
X9651134Y-16083984D01*
X9803515Y-16264936D02*
X9813039Y-16274460D01*
X9813039Y-16274460D02*
X9803515Y-16283984D01*
X9803515Y-16283984D02*
X9793991Y-16274460D01*
X9793991Y-16274460D02*
X9803515Y-16264936D01*
X9803515Y-16264936D02*
X9803515Y-16283984D01*
X10003515Y-16283984D02*
X9889229Y-16283984D01*
X9946372Y-16283984D02*
X9946372Y-16083984D01*
X9946372Y-16083984D02*
X9927325Y-16112555D01*
X9927325Y-16112555D02*
X9908277Y-16131603D01*
X9908277Y-16131603D02*
X9889229Y-16141127D01*
X10193991Y-16283984D02*
X10079706Y-16283984D01*
X10136848Y-16283984D02*
X10136848Y-16083984D01*
X10136848Y-16083984D02*
X10117801Y-16112555D01*
X10117801Y-16112555D02*
X10098753Y-16131603D01*
X10098753Y-16131603D02*
X10079706Y-16141127D01*
X10308277Y-16169698D02*
X10289229Y-16160174D01*
X10289229Y-16160174D02*
X10279706Y-16150650D01*
X10279706Y-16150650D02*
X10270182Y-16131603D01*
X10270182Y-16131603D02*
X10270182Y-16122079D01*
X10270182Y-16122079D02*
X10279706Y-16103031D01*
X10279706Y-16103031D02*
X10289229Y-16093508D01*
X10289229Y-16093508D02*
X10308277Y-16083984D01*
X10308277Y-16083984D02*
X10346372Y-16083984D01*
X10346372Y-16083984D02*
X10365420Y-16093508D01*
X10365420Y-16093508D02*
X10374944Y-16103031D01*
X10374944Y-16103031D02*
X10384468Y-16122079D01*
X10384468Y-16122079D02*
X10384468Y-16131603D01*
X10384468Y-16131603D02*
X10374944Y-16150650D01*
X10374944Y-16150650D02*
X10365420Y-16160174D01*
X10365420Y-16160174D02*
X10346372Y-16169698D01*
X10346372Y-16169698D02*
X10308277Y-16169698D01*
X10308277Y-16169698D02*
X10289229Y-16179222D01*
X10289229Y-16179222D02*
X10279706Y-16188746D01*
X10279706Y-16188746D02*
X10270182Y-16207793D01*
X10270182Y-16207793D02*
X10270182Y-16245888D01*
X10270182Y-16245888D02*
X10279706Y-16264936D01*
X10279706Y-16264936D02*
X10289229Y-16274460D01*
X10289229Y-16274460D02*
X10308277Y-16283984D01*
X10308277Y-16283984D02*
X10346372Y-16283984D01*
X10346372Y-16283984D02*
X10365420Y-16274460D01*
X10365420Y-16274460D02*
X10374944Y-16264936D01*
X10374944Y-16264936D02*
X10384468Y-16245888D01*
X10384468Y-16245888D02*
X10384468Y-16207793D01*
X10384468Y-16207793D02*
X10374944Y-16188746D01*
X10374944Y-16188746D02*
X10365420Y-16179222D01*
X10365420Y-16179222D02*
X10346372Y-16169698D01*
X10574944Y-16283984D02*
X10460658Y-16283984D01*
X10517801Y-16283984D02*
X10517801Y-16083984D01*
X10517801Y-16083984D02*
X10498753Y-16112555D01*
X10498753Y-16112555D02*
X10479706Y-16131603D01*
X10479706Y-16131603D02*
X10460658Y-16141127D01*
X10651134Y-16083984D02*
X10651134Y-16122079D01*
X10727325Y-16083984D02*
X10727325Y-16122079D01*
X11022563Y-16360174D02*
X11013039Y-16350650D01*
X11013039Y-16350650D02*
X10993991Y-16322079D01*
X10993991Y-16322079D02*
X10984468Y-16303031D01*
X10984468Y-16303031D02*
X10974944Y-16274460D01*
X10974944Y-16274460D02*
X10965420Y-16226841D01*
X10965420Y-16226841D02*
X10965420Y-16188746D01*
X10965420Y-16188746D02*
X10974944Y-16141127D01*
X10974944Y-16141127D02*
X10984468Y-16112555D01*
X10984468Y-16112555D02*
X10993991Y-16093508D01*
X10993991Y-16093508D02*
X11013039Y-16064936D01*
X11013039Y-16064936D02*
X11022563Y-16055412D01*
X11136849Y-16083984D02*
X11155896Y-16083984D01*
X11155896Y-16083984D02*
X11174944Y-16093508D01*
X11174944Y-16093508D02*
X11184468Y-16103031D01*
X11184468Y-16103031D02*
X11193991Y-16122079D01*
X11193991Y-16122079D02*
X11203515Y-16160174D01*
X11203515Y-16160174D02*
X11203515Y-16207793D01*
X11203515Y-16207793D02*
X11193991Y-16245888D01*
X11193991Y-16245888D02*
X11184468Y-16264936D01*
X11184468Y-16264936D02*
X11174944Y-16274460D01*
X11174944Y-16274460D02*
X11155896Y-16283984D01*
X11155896Y-16283984D02*
X11136849Y-16283984D01*
X11136849Y-16283984D02*
X11117801Y-16274460D01*
X11117801Y-16274460D02*
X11108277Y-16264936D01*
X11108277Y-16264936D02*
X11098753Y-16245888D01*
X11098753Y-16245888D02*
X11089230Y-16207793D01*
X11089230Y-16207793D02*
X11089230Y-16160174D01*
X11089230Y-16160174D02*
X11098753Y-16122079D01*
X11098753Y-16122079D02*
X11108277Y-16103031D01*
X11108277Y-16103031D02*
X11117801Y-16093508D01*
X11117801Y-16093508D02*
X11136849Y-16083984D01*
X11441610Y-16283984D02*
X11441610Y-16083984D01*
X11527325Y-16283984D02*
X11527325Y-16179222D01*
X11527325Y-16179222D02*
X11517801Y-16160174D01*
X11517801Y-16160174D02*
X11498753Y-16150650D01*
X11498753Y-16150650D02*
X11470182Y-16150650D01*
X11470182Y-16150650D02*
X11451134Y-16160174D01*
X11451134Y-16160174D02*
X11441610Y-16169698D01*
X11651134Y-16283984D02*
X11632087Y-16274460D01*
X11632087Y-16274460D02*
X11622563Y-16264936D01*
X11622563Y-16264936D02*
X11613039Y-16245888D01*
X11613039Y-16245888D02*
X11613039Y-16188746D01*
X11613039Y-16188746D02*
X11622563Y-16169698D01*
X11622563Y-16169698D02*
X11632087Y-16160174D01*
X11632087Y-16160174D02*
X11651134Y-16150650D01*
X11651134Y-16150650D02*
X11679706Y-16150650D01*
X11679706Y-16150650D02*
X11698753Y-16160174D01*
X11698753Y-16160174D02*
X11708277Y-16169698D01*
X11708277Y-16169698D02*
X11717801Y-16188746D01*
X11717801Y-16188746D02*
X11717801Y-16245888D01*
X11717801Y-16245888D02*
X11708277Y-16264936D01*
X11708277Y-16264936D02*
X11698753Y-16274460D01*
X11698753Y-16274460D02*
X11679706Y-16283984D01*
X11679706Y-16283984D02*
X11651134Y-16283984D01*
X11832087Y-16283984D02*
X11813039Y-16274460D01*
X11813039Y-16274460D02*
X11803515Y-16255412D01*
X11803515Y-16255412D02*
X11803515Y-16083984D01*
X11984468Y-16274460D02*
X11965420Y-16283984D01*
X11965420Y-16283984D02*
X11927325Y-16283984D01*
X11927325Y-16283984D02*
X11908277Y-16274460D01*
X11908277Y-16274460D02*
X11898753Y-16255412D01*
X11898753Y-16255412D02*
X11898753Y-16179222D01*
X11898753Y-16179222D02*
X11908277Y-16160174D01*
X11908277Y-16160174D02*
X11927325Y-16150650D01*
X11927325Y-16150650D02*
X11965420Y-16150650D01*
X11965420Y-16150650D02*
X11984468Y-16160174D01*
X11984468Y-16160174D02*
X11993991Y-16179222D01*
X11993991Y-16179222D02*
X11993991Y-16198269D01*
X11993991Y-16198269D02*
X11898753Y-16217317D01*
X12070182Y-16274460D02*
X12089230Y-16283984D01*
X12089230Y-16283984D02*
X12127325Y-16283984D01*
X12127325Y-16283984D02*
X12146372Y-16274460D01*
X12146372Y-16274460D02*
X12155896Y-16255412D01*
X12155896Y-16255412D02*
X12155896Y-16245888D01*
X12155896Y-16245888D02*
X12146372Y-16226841D01*
X12146372Y-16226841D02*
X12127325Y-16217317D01*
X12127325Y-16217317D02*
X12098753Y-16217317D01*
X12098753Y-16217317D02*
X12079706Y-16207793D01*
X12079706Y-16207793D02*
X12070182Y-16188746D01*
X12070182Y-16188746D02*
X12070182Y-16179222D01*
X12070182Y-16179222D02*
X12079706Y-16160174D01*
X12079706Y-16160174D02*
X12098753Y-16150650D01*
X12098753Y-16150650D02*
X12127325Y-16150650D01*
X12127325Y-16150650D02*
X12146372Y-16160174D01*
X12393992Y-16207793D02*
X12546373Y-16207793D01*
X12470182Y-16283984D02*
X12470182Y-16131603D01*
X12784468Y-16103031D02*
X12793992Y-16093508D01*
X12793992Y-16093508D02*
X12813039Y-16083984D01*
X12813039Y-16083984D02*
X12860658Y-16083984D01*
X12860658Y-16083984D02*
X12879706Y-16093508D01*
X12879706Y-16093508D02*
X12889230Y-16103031D01*
X12889230Y-16103031D02*
X12898753Y-16122079D01*
X12898753Y-16122079D02*
X12898753Y-16141127D01*
X12898753Y-16141127D02*
X12889230Y-16169698D01*
X12889230Y-16169698D02*
X12774944Y-16283984D01*
X12774944Y-16283984D02*
X12898753Y-16283984D01*
X13127325Y-16274460D02*
X13146373Y-16283984D01*
X13146373Y-16283984D02*
X13184468Y-16283984D01*
X13184468Y-16283984D02*
X13203515Y-16274460D01*
X13203515Y-16274460D02*
X13213039Y-16255412D01*
X13213039Y-16255412D02*
X13213039Y-16245888D01*
X13213039Y-16245888D02*
X13203515Y-16226841D01*
X13203515Y-16226841D02*
X13184468Y-16217317D01*
X13184468Y-16217317D02*
X13155896Y-16217317D01*
X13155896Y-16217317D02*
X13136849Y-16207793D01*
X13136849Y-16207793D02*
X13127325Y-16188746D01*
X13127325Y-16188746D02*
X13127325Y-16179222D01*
X13127325Y-16179222D02*
X13136849Y-16160174D01*
X13136849Y-16160174D02*
X13155896Y-16150650D01*
X13155896Y-16150650D02*
X13184468Y-16150650D01*
X13184468Y-16150650D02*
X13203515Y-16160174D01*
X13327325Y-16283984D02*
X13308277Y-16274460D01*
X13308277Y-16274460D02*
X13298754Y-16255412D01*
X13298754Y-16255412D02*
X13298754Y-16083984D01*
X13432087Y-16283984D02*
X13413039Y-16274460D01*
X13413039Y-16274460D02*
X13403515Y-16264936D01*
X13403515Y-16264936D02*
X13393992Y-16245888D01*
X13393992Y-16245888D02*
X13393992Y-16188746D01*
X13393992Y-16188746D02*
X13403515Y-16169698D01*
X13403515Y-16169698D02*
X13413039Y-16160174D01*
X13413039Y-16160174D02*
X13432087Y-16150650D01*
X13432087Y-16150650D02*
X13460658Y-16150650D01*
X13460658Y-16150650D02*
X13479706Y-16160174D01*
X13479706Y-16160174D02*
X13489230Y-16169698D01*
X13489230Y-16169698D02*
X13498754Y-16188746D01*
X13498754Y-16188746D02*
X13498754Y-16245888D01*
X13498754Y-16245888D02*
X13489230Y-16264936D01*
X13489230Y-16264936D02*
X13479706Y-16274460D01*
X13479706Y-16274460D02*
X13460658Y-16283984D01*
X13460658Y-16283984D02*
X13432087Y-16283984D01*
X13555896Y-16150650D02*
X13632087Y-16150650D01*
X13584468Y-16083984D02*
X13584468Y-16255412D01*
X13584468Y-16255412D02*
X13593992Y-16274460D01*
X13593992Y-16274460D02*
X13613039Y-16283984D01*
X13613039Y-16283984D02*
X13632087Y-16283984D01*
X13689230Y-16274460D02*
X13708277Y-16283984D01*
X13708277Y-16283984D02*
X13746373Y-16283984D01*
X13746373Y-16283984D02*
X13765420Y-16274460D01*
X13765420Y-16274460D02*
X13774944Y-16255412D01*
X13774944Y-16255412D02*
X13774944Y-16245888D01*
X13774944Y-16245888D02*
X13765420Y-16226841D01*
X13765420Y-16226841D02*
X13746373Y-16217317D01*
X13746373Y-16217317D02*
X13717801Y-16217317D01*
X13717801Y-16217317D02*
X13698754Y-16207793D01*
X13698754Y-16207793D02*
X13689230Y-16188746D01*
X13689230Y-16188746D02*
X13689230Y-16179222D01*
X13689230Y-16179222D02*
X13698754Y-16160174D01*
X13698754Y-16160174D02*
X13717801Y-16150650D01*
X13717801Y-16150650D02*
X13746373Y-16150650D01*
X13746373Y-16150650D02*
X13765420Y-16160174D01*
X13841611Y-16360174D02*
X13851135Y-16350650D01*
X13851135Y-16350650D02*
X13870182Y-16322079D01*
X13870182Y-16322079D02*
X13879706Y-16303031D01*
X13879706Y-16303031D02*
X13889230Y-16274460D01*
X13889230Y-16274460D02*
X13898754Y-16226841D01*
X13898754Y-16226841D02*
X13898754Y-16188746D01*
X13898754Y-16188746D02*
X13889230Y-16141127D01*
X13889230Y-16141127D02*
X13879706Y-16112555D01*
X13879706Y-16112555D02*
X13870182Y-16093508D01*
X13870182Y-16093508D02*
X13851135Y-16064936D01*
X13851135Y-16064936D02*
X13841611Y-16055412D01*
X7447500Y-16512500D02*
G75*
G03*
X7447500Y-16512500I-100000J0D01*
G01*
X7793991Y-16403984D02*
X7755896Y-16403984D01*
X7755896Y-16403984D02*
X7736848Y-16413508D01*
X7736848Y-16413508D02*
X7727324Y-16423031D01*
X7727324Y-16423031D02*
X7708277Y-16451603D01*
X7708277Y-16451603D02*
X7698753Y-16489698D01*
X7698753Y-16489698D02*
X7698753Y-16565888D01*
X7698753Y-16565888D02*
X7708277Y-16584936D01*
X7708277Y-16584936D02*
X7717801Y-16594460D01*
X7717801Y-16594460D02*
X7736848Y-16603984D01*
X7736848Y-16603984D02*
X7774943Y-16603984D01*
X7774943Y-16603984D02*
X7793991Y-16594460D01*
X7793991Y-16594460D02*
X7803515Y-16584936D01*
X7803515Y-16584936D02*
X7813039Y-16565888D01*
X7813039Y-16565888D02*
X7813039Y-16518269D01*
X7813039Y-16518269D02*
X7803515Y-16499222D01*
X7803515Y-16499222D02*
X7793991Y-16489698D01*
X7793991Y-16489698D02*
X7774943Y-16480174D01*
X7774943Y-16480174D02*
X7736848Y-16480174D01*
X7736848Y-16480174D02*
X7717801Y-16489698D01*
X7717801Y-16489698D02*
X7708277Y-16499222D01*
X7708277Y-16499222D02*
X7698753Y-16518269D01*
X7898753Y-16584936D02*
X7908277Y-16594460D01*
X7908277Y-16594460D02*
X7898753Y-16603984D01*
X7898753Y-16603984D02*
X7889229Y-16594460D01*
X7889229Y-16594460D02*
X7898753Y-16584936D01*
X7898753Y-16584936D02*
X7898753Y-16603984D01*
X7984467Y-16423031D02*
X7993991Y-16413508D01*
X7993991Y-16413508D02*
X8013039Y-16403984D01*
X8013039Y-16403984D02*
X8060658Y-16403984D01*
X8060658Y-16403984D02*
X8079705Y-16413508D01*
X8079705Y-16413508D02*
X8089229Y-16423031D01*
X8089229Y-16423031D02*
X8098753Y-16442079D01*
X8098753Y-16442079D02*
X8098753Y-16461127D01*
X8098753Y-16461127D02*
X8089229Y-16489698D01*
X8089229Y-16489698D02*
X7974943Y-16603984D01*
X7974943Y-16603984D02*
X8098753Y-16603984D01*
X8222562Y-16403984D02*
X8241610Y-16403984D01*
X8241610Y-16403984D02*
X8260658Y-16413508D01*
X8260658Y-16413508D02*
X8270182Y-16423031D01*
X8270182Y-16423031D02*
X8279705Y-16442079D01*
X8279705Y-16442079D02*
X8289229Y-16480174D01*
X8289229Y-16480174D02*
X8289229Y-16527793D01*
X8289229Y-16527793D02*
X8279705Y-16565888D01*
X8279705Y-16565888D02*
X8270182Y-16584936D01*
X8270182Y-16584936D02*
X8260658Y-16594460D01*
X8260658Y-16594460D02*
X8241610Y-16603984D01*
X8241610Y-16603984D02*
X8222562Y-16603984D01*
X8222562Y-16603984D02*
X8203515Y-16594460D01*
X8203515Y-16594460D02*
X8193991Y-16584936D01*
X8193991Y-16584936D02*
X8184467Y-16565888D01*
X8184467Y-16565888D02*
X8174943Y-16527793D01*
X8174943Y-16527793D02*
X8174943Y-16480174D01*
X8174943Y-16480174D02*
X8184467Y-16442079D01*
X8184467Y-16442079D02*
X8193991Y-16423031D01*
X8193991Y-16423031D02*
X8203515Y-16413508D01*
X8203515Y-16413508D02*
X8222562Y-16403984D01*
X8413039Y-16403984D02*
X8432086Y-16403984D01*
X8432086Y-16403984D02*
X8451134Y-16413508D01*
X8451134Y-16413508D02*
X8460658Y-16423031D01*
X8460658Y-16423031D02*
X8470182Y-16442079D01*
X8470182Y-16442079D02*
X8479705Y-16480174D01*
X8479705Y-16480174D02*
X8479705Y-16527793D01*
X8479705Y-16527793D02*
X8470182Y-16565888D01*
X8470182Y-16565888D02*
X8460658Y-16584936D01*
X8460658Y-16584936D02*
X8451134Y-16594460D01*
X8451134Y-16594460D02*
X8432086Y-16603984D01*
X8432086Y-16603984D02*
X8413039Y-16603984D01*
X8413039Y-16603984D02*
X8393991Y-16594460D01*
X8393991Y-16594460D02*
X8384467Y-16584936D01*
X8384467Y-16584936D02*
X8374943Y-16565888D01*
X8374943Y-16565888D02*
X8365420Y-16527793D01*
X8365420Y-16527793D02*
X8365420Y-16480174D01*
X8365420Y-16480174D02*
X8374943Y-16442079D01*
X8374943Y-16442079D02*
X8384467Y-16423031D01*
X8384467Y-16423031D02*
X8393991Y-16413508D01*
X8393991Y-16413508D02*
X8413039Y-16403984D01*
X8565420Y-16603984D02*
X8565420Y-16470650D01*
X8565420Y-16489698D02*
X8574944Y-16480174D01*
X8574944Y-16480174D02*
X8593991Y-16470650D01*
X8593991Y-16470650D02*
X8622563Y-16470650D01*
X8622563Y-16470650D02*
X8641610Y-16480174D01*
X8641610Y-16480174D02*
X8651134Y-16499222D01*
X8651134Y-16499222D02*
X8651134Y-16603984D01*
X8651134Y-16499222D02*
X8660658Y-16480174D01*
X8660658Y-16480174D02*
X8679705Y-16470650D01*
X8679705Y-16470650D02*
X8708277Y-16470650D01*
X8708277Y-16470650D02*
X8727325Y-16480174D01*
X8727325Y-16480174D02*
X8736848Y-16499222D01*
X8736848Y-16499222D02*
X8736848Y-16603984D01*
X8832086Y-16603984D02*
X8832086Y-16470650D01*
X8832086Y-16489698D02*
X8841610Y-16480174D01*
X8841610Y-16480174D02*
X8860658Y-16470650D01*
X8860658Y-16470650D02*
X8889229Y-16470650D01*
X8889229Y-16470650D02*
X8908277Y-16480174D01*
X8908277Y-16480174D02*
X8917801Y-16499222D01*
X8917801Y-16499222D02*
X8917801Y-16603984D01*
X8917801Y-16499222D02*
X8927325Y-16480174D01*
X8927325Y-16480174D02*
X8946372Y-16470650D01*
X8946372Y-16470650D02*
X8974944Y-16470650D01*
X8974944Y-16470650D02*
X8993991Y-16480174D01*
X8993991Y-16480174D02*
X9003515Y-16499222D01*
X9003515Y-16499222D02*
X9003515Y-16603984D01*
X9393991Y-16394460D02*
X9222563Y-16651603D01*
X9651134Y-16403984D02*
X9670182Y-16403984D01*
X9670182Y-16403984D02*
X9689229Y-16413508D01*
X9689229Y-16413508D02*
X9698753Y-16423031D01*
X9698753Y-16423031D02*
X9708277Y-16442079D01*
X9708277Y-16442079D02*
X9717801Y-16480174D01*
X9717801Y-16480174D02*
X9717801Y-16527793D01*
X9717801Y-16527793D02*
X9708277Y-16565888D01*
X9708277Y-16565888D02*
X9698753Y-16584936D01*
X9698753Y-16584936D02*
X9689229Y-16594460D01*
X9689229Y-16594460D02*
X9670182Y-16603984D01*
X9670182Y-16603984D02*
X9651134Y-16603984D01*
X9651134Y-16603984D02*
X9632087Y-16594460D01*
X9632087Y-16594460D02*
X9622563Y-16584936D01*
X9622563Y-16584936D02*
X9613039Y-16565888D01*
X9613039Y-16565888D02*
X9603515Y-16527793D01*
X9603515Y-16527793D02*
X9603515Y-16480174D01*
X9603515Y-16480174D02*
X9613039Y-16442079D01*
X9613039Y-16442079D02*
X9622563Y-16423031D01*
X9622563Y-16423031D02*
X9632087Y-16413508D01*
X9632087Y-16413508D02*
X9651134Y-16403984D01*
X9803515Y-16584936D02*
X9813039Y-16594460D01*
X9813039Y-16594460D02*
X9803515Y-16603984D01*
X9803515Y-16603984D02*
X9793991Y-16594460D01*
X9793991Y-16594460D02*
X9803515Y-16584936D01*
X9803515Y-16584936D02*
X9803515Y-16603984D01*
X9889229Y-16423031D02*
X9898753Y-16413508D01*
X9898753Y-16413508D02*
X9917801Y-16403984D01*
X9917801Y-16403984D02*
X9965420Y-16403984D01*
X9965420Y-16403984D02*
X9984468Y-16413508D01*
X9984468Y-16413508D02*
X9993991Y-16423031D01*
X9993991Y-16423031D02*
X10003515Y-16442079D01*
X10003515Y-16442079D02*
X10003515Y-16461127D01*
X10003515Y-16461127D02*
X9993991Y-16489698D01*
X9993991Y-16489698D02*
X9879706Y-16603984D01*
X9879706Y-16603984D02*
X10003515Y-16603984D01*
X10174944Y-16470650D02*
X10174944Y-16603984D01*
X10127325Y-16394460D02*
X10079706Y-16537317D01*
X10079706Y-16537317D02*
X10203515Y-16537317D01*
X10365420Y-16470650D02*
X10365420Y-16603984D01*
X10317801Y-16394460D02*
X10270182Y-16537317D01*
X10270182Y-16537317D02*
X10393991Y-16537317D01*
X10574944Y-16603984D02*
X10460658Y-16603984D01*
X10517801Y-16603984D02*
X10517801Y-16403984D01*
X10517801Y-16403984D02*
X10498753Y-16432555D01*
X10498753Y-16432555D02*
X10479706Y-16451603D01*
X10479706Y-16451603D02*
X10460658Y-16461127D01*
X10651134Y-16403984D02*
X10651134Y-16442079D01*
X10727325Y-16403984D02*
X10727325Y-16442079D01*
X11022563Y-16680174D02*
X11013039Y-16670650D01*
X11013039Y-16670650D02*
X10993991Y-16642079D01*
X10993991Y-16642079D02*
X10984468Y-16623031D01*
X10984468Y-16623031D02*
X10974944Y-16594460D01*
X10974944Y-16594460D02*
X10965420Y-16546841D01*
X10965420Y-16546841D02*
X10965420Y-16508746D01*
X10965420Y-16508746D02*
X10974944Y-16461127D01*
X10974944Y-16461127D02*
X10984468Y-16432555D01*
X10984468Y-16432555D02*
X10993991Y-16413508D01*
X10993991Y-16413508D02*
X11013039Y-16384936D01*
X11013039Y-16384936D02*
X11022563Y-16375412D01*
X11108277Y-16603984D02*
X11146372Y-16603984D01*
X11146372Y-16603984D02*
X11165420Y-16594460D01*
X11165420Y-16594460D02*
X11174944Y-16584936D01*
X11174944Y-16584936D02*
X11193991Y-16556365D01*
X11193991Y-16556365D02*
X11203515Y-16518269D01*
X11203515Y-16518269D02*
X11203515Y-16442079D01*
X11203515Y-16442079D02*
X11193991Y-16423031D01*
X11193991Y-16423031D02*
X11184468Y-16413508D01*
X11184468Y-16413508D02*
X11165420Y-16403984D01*
X11165420Y-16403984D02*
X11127325Y-16403984D01*
X11127325Y-16403984D02*
X11108277Y-16413508D01*
X11108277Y-16413508D02*
X11098753Y-16423031D01*
X11098753Y-16423031D02*
X11089230Y-16442079D01*
X11089230Y-16442079D02*
X11089230Y-16489698D01*
X11089230Y-16489698D02*
X11098753Y-16508746D01*
X11098753Y-16508746D02*
X11108277Y-16518269D01*
X11108277Y-16518269D02*
X11127325Y-16527793D01*
X11127325Y-16527793D02*
X11165420Y-16527793D01*
X11165420Y-16527793D02*
X11184468Y-16518269D01*
X11184468Y-16518269D02*
X11193991Y-16508746D01*
X11193991Y-16508746D02*
X11203515Y-16489698D01*
X11441610Y-16603984D02*
X11441610Y-16403984D01*
X11527325Y-16603984D02*
X11527325Y-16499222D01*
X11527325Y-16499222D02*
X11517801Y-16480174D01*
X11517801Y-16480174D02*
X11498753Y-16470650D01*
X11498753Y-16470650D02*
X11470182Y-16470650D01*
X11470182Y-16470650D02*
X11451134Y-16480174D01*
X11451134Y-16480174D02*
X11441610Y-16489698D01*
X11651134Y-16603984D02*
X11632087Y-16594460D01*
X11632087Y-16594460D02*
X11622563Y-16584936D01*
X11622563Y-16584936D02*
X11613039Y-16565888D01*
X11613039Y-16565888D02*
X11613039Y-16508746D01*
X11613039Y-16508746D02*
X11622563Y-16489698D01*
X11622563Y-16489698D02*
X11632087Y-16480174D01*
X11632087Y-16480174D02*
X11651134Y-16470650D01*
X11651134Y-16470650D02*
X11679706Y-16470650D01*
X11679706Y-16470650D02*
X11698753Y-16480174D01*
X11698753Y-16480174D02*
X11708277Y-16489698D01*
X11708277Y-16489698D02*
X11717801Y-16508746D01*
X11717801Y-16508746D02*
X11717801Y-16565888D01*
X11717801Y-16565888D02*
X11708277Y-16584936D01*
X11708277Y-16584936D02*
X11698753Y-16594460D01*
X11698753Y-16594460D02*
X11679706Y-16603984D01*
X11679706Y-16603984D02*
X11651134Y-16603984D01*
X11832087Y-16603984D02*
X11813039Y-16594460D01*
X11813039Y-16594460D02*
X11803515Y-16575412D01*
X11803515Y-16575412D02*
X11803515Y-16403984D01*
X11984468Y-16594460D02*
X11965420Y-16603984D01*
X11965420Y-16603984D02*
X11927325Y-16603984D01*
X11927325Y-16603984D02*
X11908277Y-16594460D01*
X11908277Y-16594460D02*
X11898753Y-16575412D01*
X11898753Y-16575412D02*
X11898753Y-16499222D01*
X11898753Y-16499222D02*
X11908277Y-16480174D01*
X11908277Y-16480174D02*
X11927325Y-16470650D01*
X11927325Y-16470650D02*
X11965420Y-16470650D01*
X11965420Y-16470650D02*
X11984468Y-16480174D01*
X11984468Y-16480174D02*
X11993991Y-16499222D01*
X11993991Y-16499222D02*
X11993991Y-16518269D01*
X11993991Y-16518269D02*
X11898753Y-16537317D01*
X12070182Y-16594460D02*
X12089230Y-16603984D01*
X12089230Y-16603984D02*
X12127325Y-16603984D01*
X12127325Y-16603984D02*
X12146372Y-16594460D01*
X12146372Y-16594460D02*
X12155896Y-16575412D01*
X12155896Y-16575412D02*
X12155896Y-16565888D01*
X12155896Y-16565888D02*
X12146372Y-16546841D01*
X12146372Y-16546841D02*
X12127325Y-16537317D01*
X12127325Y-16537317D02*
X12098753Y-16537317D01*
X12098753Y-16537317D02*
X12079706Y-16527793D01*
X12079706Y-16527793D02*
X12070182Y-16508746D01*
X12070182Y-16508746D02*
X12070182Y-16499222D01*
X12070182Y-16499222D02*
X12079706Y-16480174D01*
X12079706Y-16480174D02*
X12098753Y-16470650D01*
X12098753Y-16470650D02*
X12127325Y-16470650D01*
X12127325Y-16470650D02*
X12146372Y-16480174D01*
X12222563Y-16680174D02*
X12232087Y-16670650D01*
X12232087Y-16670650D02*
X12251134Y-16642079D01*
X12251134Y-16642079D02*
X12260658Y-16623031D01*
X12260658Y-16623031D02*
X12270182Y-16594460D01*
X12270182Y-16594460D02*
X12279706Y-16546841D01*
X12279706Y-16546841D02*
X12279706Y-16508746D01*
X12279706Y-16508746D02*
X12270182Y-16461127D01*
X12270182Y-16461127D02*
X12260658Y-16432555D01*
X12260658Y-16432555D02*
X12251134Y-16413508D01*
X12251134Y-16413508D02*
X12232087Y-16384936D01*
X12232087Y-16384936D02*
X12222563Y-16375412D01*
M02*
