%TF.GenerationSoftware,KiCad,Pcbnew,7.0.7-7.0.7~ubuntu22.04.1*%
%TF.CreationDate,2023-09-23T20:45:03+02:00*%
%TF.ProjectId,Multiple-3x2,4d756c74-6970-46c6-952d-3378322e6b69,rev?*%
%TF.SameCoordinates,Original*%
%TF.FileFunction,Drillmap*%
%TF.FilePolarity,Positive*%
%FSLAX45Y45*%
G04 Gerber Fmt 4.5, Leading zero omitted, Abs format (unit mm)*
G04 Created by KiCad (PCBNEW 7.0.7-7.0.7~ubuntu22.04.1) date 2023-09-23 20:45:03*
%MOMM*%
%LPD*%
G01*
G04 APERTURE LIST*
%ADD10C,0.050000*%
%ADD11C,0.200000*%
G04 APERTURE END LIST*
D10*
X8950000Y-15550000D02*
X7450000Y-15550000D01*
X7450000Y-2700000D02*
X7450000Y-15550000D01*
X8950000Y-2700000D02*
X8950000Y-15550000D01*
X7450000Y-2700000D02*
X8950000Y-2700000D01*
D11*
X7708277Y-15863984D02*
X7708277Y-15663984D01*
X7708277Y-15663984D02*
X7755896Y-15663984D01*
X7755896Y-15663984D02*
X7784467Y-15673508D01*
X7784467Y-15673508D02*
X7803515Y-15692555D01*
X7803515Y-15692555D02*
X7813039Y-15711603D01*
X7813039Y-15711603D02*
X7822562Y-15749698D01*
X7822562Y-15749698D02*
X7822562Y-15778269D01*
X7822562Y-15778269D02*
X7813039Y-15816365D01*
X7813039Y-15816365D02*
X7803515Y-15835412D01*
X7803515Y-15835412D02*
X7784467Y-15854460D01*
X7784467Y-15854460D02*
X7755896Y-15863984D01*
X7755896Y-15863984D02*
X7708277Y-15863984D01*
X7908277Y-15863984D02*
X7908277Y-15730650D01*
X7908277Y-15768746D02*
X7917801Y-15749698D01*
X7917801Y-15749698D02*
X7927324Y-15740174D01*
X7927324Y-15740174D02*
X7946372Y-15730650D01*
X7946372Y-15730650D02*
X7965420Y-15730650D01*
X8032086Y-15863984D02*
X8032086Y-15730650D01*
X8032086Y-15663984D02*
X8022562Y-15673508D01*
X8022562Y-15673508D02*
X8032086Y-15683031D01*
X8032086Y-15683031D02*
X8041610Y-15673508D01*
X8041610Y-15673508D02*
X8032086Y-15663984D01*
X8032086Y-15663984D02*
X8032086Y-15683031D01*
X8155896Y-15863984D02*
X8136848Y-15854460D01*
X8136848Y-15854460D02*
X8127324Y-15835412D01*
X8127324Y-15835412D02*
X8127324Y-15663984D01*
X8260658Y-15863984D02*
X8241610Y-15854460D01*
X8241610Y-15854460D02*
X8232086Y-15835412D01*
X8232086Y-15835412D02*
X8232086Y-15663984D01*
X8489229Y-15863984D02*
X8489229Y-15663984D01*
X8489229Y-15663984D02*
X8555896Y-15806841D01*
X8555896Y-15806841D02*
X8622563Y-15663984D01*
X8622563Y-15663984D02*
X8622563Y-15863984D01*
X8803515Y-15863984D02*
X8803515Y-15759222D01*
X8803515Y-15759222D02*
X8793991Y-15740174D01*
X8793991Y-15740174D02*
X8774944Y-15730650D01*
X8774944Y-15730650D02*
X8736848Y-15730650D01*
X8736848Y-15730650D02*
X8717801Y-15740174D01*
X8803515Y-15854460D02*
X8784467Y-15863984D01*
X8784467Y-15863984D02*
X8736848Y-15863984D01*
X8736848Y-15863984D02*
X8717801Y-15854460D01*
X8717801Y-15854460D02*
X8708277Y-15835412D01*
X8708277Y-15835412D02*
X8708277Y-15816365D01*
X8708277Y-15816365D02*
X8717801Y-15797317D01*
X8717801Y-15797317D02*
X8736848Y-15787793D01*
X8736848Y-15787793D02*
X8784467Y-15787793D01*
X8784467Y-15787793D02*
X8803515Y-15778269D01*
X8898753Y-15730650D02*
X8898753Y-15930650D01*
X8898753Y-15740174D02*
X8917801Y-15730650D01*
X8917801Y-15730650D02*
X8955896Y-15730650D01*
X8955896Y-15730650D02*
X8974944Y-15740174D01*
X8974944Y-15740174D02*
X8984467Y-15749698D01*
X8984467Y-15749698D02*
X8993991Y-15768746D01*
X8993991Y-15768746D02*
X8993991Y-15825888D01*
X8993991Y-15825888D02*
X8984467Y-15844936D01*
X8984467Y-15844936D02*
X8974944Y-15854460D01*
X8974944Y-15854460D02*
X8955896Y-15863984D01*
X8955896Y-15863984D02*
X8917801Y-15863984D01*
X8917801Y-15863984D02*
X8898753Y-15854460D01*
X9079705Y-15844936D02*
X9089229Y-15854460D01*
X9089229Y-15854460D02*
X9079705Y-15863984D01*
X9079705Y-15863984D02*
X9070182Y-15854460D01*
X9070182Y-15854460D02*
X9079705Y-15844936D01*
X9079705Y-15844936D02*
X9079705Y-15863984D01*
X9079705Y-15740174D02*
X9089229Y-15749698D01*
X9089229Y-15749698D02*
X9079705Y-15759222D01*
X9079705Y-15759222D02*
X9070182Y-15749698D01*
X9070182Y-15749698D02*
X9079705Y-15740174D01*
X9079705Y-15740174D02*
X9079705Y-15759222D01*
M02*
