G04 #@! TF.GenerationSoftware,KiCad,Pcbnew,7.0.7-7.0.7~ubuntu22.04.1*
G04 #@! TF.CreationDate,2023-09-23T20:45:03+02:00*
G04 #@! TF.ProjectId,Multiple-3x2,4d756c74-6970-46c6-952d-3378322e6b69,rev?*
G04 #@! TF.SameCoordinates,Original*
G04 #@! TF.FileFunction,Legend,Bot*
G04 #@! TF.FilePolarity,Positive*
%FSLAX46Y46*%
G04 Gerber Fmt 4.6, Leading zero omitted, Abs format (unit mm)*
G04 Created by KiCad (PCBNEW 7.0.7-7.0.7~ubuntu22.04.1) date 2023-09-23 20:45:03*
%MOMM*%
%LPD*%
G01*
G04 APERTURE LIST*
%ADD10C,0.150000*%
%ADD11O,6.700000X4.200000*%
G04 APERTURE END LIST*
D10*
X76545180Y-83119048D02*
X75830895Y-83119048D01*
X75830895Y-83119048D02*
X75688038Y-83166667D01*
X75688038Y-83166667D02*
X75592800Y-83261905D01*
X75592800Y-83261905D02*
X75545180Y-83404762D01*
X75545180Y-83404762D02*
X75545180Y-83500000D01*
X75545180Y-82166667D02*
X75545180Y-82642857D01*
X75545180Y-82642857D02*
X76545180Y-82642857D01*
X75640419Y-81261905D02*
X75592800Y-81309524D01*
X75592800Y-81309524D02*
X75545180Y-81452381D01*
X75545180Y-81452381D02*
X75545180Y-81547619D01*
X75545180Y-81547619D02*
X75592800Y-81690476D01*
X75592800Y-81690476D02*
X75688038Y-81785714D01*
X75688038Y-81785714D02*
X75783276Y-81833333D01*
X75783276Y-81833333D02*
X75973752Y-81880952D01*
X75973752Y-81880952D02*
X76116609Y-81880952D01*
X76116609Y-81880952D02*
X76307085Y-81833333D01*
X76307085Y-81833333D02*
X76402323Y-81785714D01*
X76402323Y-81785714D02*
X76497561Y-81690476D01*
X76497561Y-81690476D02*
X76545180Y-81547619D01*
X76545180Y-81547619D02*
X76545180Y-81452381D01*
X76545180Y-81452381D02*
X76497561Y-81309524D01*
X76497561Y-81309524D02*
X76449942Y-81261905D01*
X76545180Y-80547619D02*
X75830895Y-80547619D01*
X75830895Y-80547619D02*
X75688038Y-80595238D01*
X75688038Y-80595238D02*
X75592800Y-80690476D01*
X75592800Y-80690476D02*
X75545180Y-80833333D01*
X75545180Y-80833333D02*
X75545180Y-80928571D01*
X75545180Y-79595238D02*
X75545180Y-80071428D01*
X75545180Y-80071428D02*
X76545180Y-80071428D01*
X75640419Y-78690476D02*
X75592800Y-78738095D01*
X75592800Y-78738095D02*
X75545180Y-78880952D01*
X75545180Y-78880952D02*
X75545180Y-78976190D01*
X75545180Y-78976190D02*
X75592800Y-79119047D01*
X75592800Y-79119047D02*
X75688038Y-79214285D01*
X75688038Y-79214285D02*
X75783276Y-79261904D01*
X75783276Y-79261904D02*
X75973752Y-79309523D01*
X75973752Y-79309523D02*
X76116609Y-79309523D01*
X76116609Y-79309523D02*
X76307085Y-79261904D01*
X76307085Y-79261904D02*
X76402323Y-79214285D01*
X76402323Y-79214285D02*
X76497561Y-79119047D01*
X76497561Y-79119047D02*
X76545180Y-78976190D01*
X76545180Y-78976190D02*
X76545180Y-78880952D01*
X76545180Y-78880952D02*
X76497561Y-78738095D01*
X76497561Y-78738095D02*
X76449942Y-78690476D01*
X76545180Y-77976190D02*
X75830895Y-77976190D01*
X75830895Y-77976190D02*
X75688038Y-78023809D01*
X75688038Y-78023809D02*
X75592800Y-78119047D01*
X75592800Y-78119047D02*
X75545180Y-78261904D01*
X75545180Y-78261904D02*
X75545180Y-78357142D01*
X75545180Y-77023809D02*
X75545180Y-77499999D01*
X75545180Y-77499999D02*
X76545180Y-77499999D01*
X75640419Y-76119047D02*
X75592800Y-76166666D01*
X75592800Y-76166666D02*
X75545180Y-76309523D01*
X75545180Y-76309523D02*
X75545180Y-76404761D01*
X75545180Y-76404761D02*
X75592800Y-76547618D01*
X75592800Y-76547618D02*
X75688038Y-76642856D01*
X75688038Y-76642856D02*
X75783276Y-76690475D01*
X75783276Y-76690475D02*
X75973752Y-76738094D01*
X75973752Y-76738094D02*
X76116609Y-76738094D01*
X76116609Y-76738094D02*
X76307085Y-76690475D01*
X76307085Y-76690475D02*
X76402323Y-76642856D01*
X76402323Y-76642856D02*
X76497561Y-76547618D01*
X76497561Y-76547618D02*
X76545180Y-76404761D01*
X76545180Y-76404761D02*
X76545180Y-76309523D01*
X76545180Y-76309523D02*
X76497561Y-76166666D01*
X76497561Y-76166666D02*
X76449942Y-76119047D01*
X76545180Y-75404761D02*
X75830895Y-75404761D01*
X75830895Y-75404761D02*
X75688038Y-75452380D01*
X75688038Y-75452380D02*
X75592800Y-75547618D01*
X75592800Y-75547618D02*
X75545180Y-75690475D01*
X75545180Y-75690475D02*
X75545180Y-75785713D01*
X75545180Y-74452380D02*
X75545180Y-74928570D01*
X75545180Y-74928570D02*
X76545180Y-74928570D01*
X75640419Y-73547618D02*
X75592800Y-73595237D01*
X75592800Y-73595237D02*
X75545180Y-73738094D01*
X75545180Y-73738094D02*
X75545180Y-73833332D01*
X75545180Y-73833332D02*
X75592800Y-73976189D01*
X75592800Y-73976189D02*
X75688038Y-74071427D01*
X75688038Y-74071427D02*
X75783276Y-74119046D01*
X75783276Y-74119046D02*
X75973752Y-74166665D01*
X75973752Y-74166665D02*
X76116609Y-74166665D01*
X76116609Y-74166665D02*
X76307085Y-74119046D01*
X76307085Y-74119046D02*
X76402323Y-74071427D01*
X76402323Y-74071427D02*
X76497561Y-73976189D01*
X76497561Y-73976189D02*
X76545180Y-73833332D01*
X76545180Y-73833332D02*
X76545180Y-73738094D01*
X76545180Y-73738094D02*
X76497561Y-73595237D01*
X76497561Y-73595237D02*
X76449942Y-73547618D01*
%LPC*%
D11*
X82000000Y-30500000D03*
X82000000Y-152500000D03*
%LPD*%
M02*
